<svg xmlns="http://www.w3.org/2000/svg" viewBox="0 0 100 100"><rect width="100" height="100" fill="#7657FF"/><path d="M19 25h45c17 0 25 10 25 23 0 13-8 23-25 23H50l-17 16 4-16H19c-5 0-9-4-9-9V34c0-5 4-9 9-9Z" fill="#FF6F61" stroke="#17151F" stroke-width="6"/><path d="m42 20 12-11-2 14 13 5-14 3-7 13-1-15-13-4 14-5Z" fill="#FFC857" stroke="#17151F" stroke-width="5" stroke-linejoin="round"/><path d="M31 47h38" stroke="#17151F" stroke-width="6" stroke-linecap="round"/><circle cx="38" cy="58" r="4" fill="#17151F"/><circle cx="52" cy="58" r="4" fill="#17151F"/><circle cx="66" cy="58" r="4" fill="#17151F"/></svg>
